<svg width="138" height="138" viewBox="0 0 138 138" fill="none" xmlns="http://www.w3.org/2000/svg">
<path d="M41.676 98.946C48.645 81.627 56.511 61.824 86.25 55.2C86.25 55.2 51.75 55.2 40.572 87.147C40.572 87.147 34.5 81.075 34.5 74.175C34.5 67.275 41.4 52.647 58.65 49.197C63.549 48.3 69 47.403 74.382 46.644C87.975 44.85 101.016 42.918 103.5 37.95C103.5 37.95 93.15 96.6 55.2 96.6C53.958 96.6 52.233 96.186 50.577 95.565L47.334 103.5L40.779 101.223L41.676 98.946ZM69 13.8C99.429 13.8 124.2 38.571 124.2 69C124.2 99.429 99.429 124.2 69 124.2C38.571 124.2 13.8 99.429 13.8 69C13.8 38.571 38.571 13.8 69 13.8ZM69 0C31.05 0 0 31.05 0 69C0 106.95 31.05 138 69 138C106.95 138 138 106.95 138 69C138 31.05 106.95 0 69 0Z" fill="#4ECB71"/>
</svg>