<svg width="49" height="36" viewBox="0 0 49 36" fill="none" xmlns="http://www.w3.org/2000/svg">
<rect x="0.5224" width="48" height="36" rx="5" fill="#D9EAD9"/>
<path d="M36.623 17.6851C37.1194 17.6851 37.5224 18.0803 37.5224 18.5682C37.5224 19.0549 37.1194 19.4489 36.623 19.4489H35.3679V23.6557C35.3679 26.2029 33.256 28.2727 30.6608 28.2727H28.7781C28.2806 28.2727 27.8776 27.8775 27.8776 27.3897C27.8776 26.9029 28.2806 26.5077 28.7781 26.5077H30.6608C32.2645 26.5077 33.5692 25.2295 33.5692 23.6557V19.4489H30.4693V20.6206C30.4811 22.0866 29.2816 23.2849 27.7866 23.2988H21.2582C19.7644 23.2849 18.5649 22.0866 18.5767 20.6206V19.4489H15.4768V23.6603C15.4768 25.2283 16.7779 26.5043 18.3769 26.5066L20.3009 26.5077C20.7973 26.5077 21.2003 26.9029 21.2003 27.3897C21.1991 27.8775 20.7973 28.2727 20.2998 28.2727L18.3746 28.2716C15.7852 28.2693 13.6769 26.2006 13.6769 23.6603V19.4489H12.4229C11.9266 19.4489 11.5224 19.0549 11.5224 18.5682C11.5224 18.0803 11.9266 17.6851 12.4229 17.6851H36.623ZM27.7872 11.4231C28.5022 11.4231 29.1888 11.7048 29.6887 12.2066C30.1922 12.713 30.4711 13.3933 30.4699 14.1013V15.5731C30.464 15.7458 30.3234 15.886 30.1473 15.8907H18.8964C18.7214 15.8849 18.5808 15.7446 18.5772 15.5731V14.1013C18.5643 12.6353 19.765 11.4382 21.2588 11.4231H27.7872ZM30.6603 7.00035C33.2567 7.00035 35.3675 9.07013 35.3675 11.6162V13.81C35.3675 14.2967 34.9657 14.6931 34.4681 14.6931C33.9717 14.6931 33.5687 14.2967 33.5687 13.81V11.6162C33.5687 10.0436 32.264 8.76418 30.6603 8.76418H28.7777C28.2813 8.76418 27.8783 8.37016 27.8783 7.88342C27.8783 7.39553 28.2813 7.00035 28.7777 7.00035H30.6603ZM20.3006 7C20.797 7 21.2 7.39518 21.2 7.88308C21.2 8.36981 20.7981 8.76499 20.3006 8.76499L18.3754 8.76615C16.7776 8.76847 15.4776 10.0444 15.4776 11.6124V13.8096C15.4776 14.2964 15.0734 14.6927 14.577 14.6927C14.0807 14.6927 13.6777 14.2964 13.6777 13.8096V11.6124C13.6777 9.0721 15.7849 7.00348 18.3742 7.00116L20.3006 7Z" fill="#3E6C48"/>
</svg>