<svg width="23" height="22" viewBox="0 0 23 22" fill="none" xmlns="http://www.w3.org/2000/svg">
<path d="M17.7185 19.5938H12.5365C13.5061 18.8013 14.406 17.9273 15.2263 16.9813C17.5294 14.3344 18.7498 11.55 18.7498 8.9375C18.7498 7.02297 17.9892 5.18685 16.6354 3.83307C15.2817 2.47929 13.4455 1.71875 11.531 1.71875C9.61648 1.71875 7.78036 2.47929 6.42658 3.83307C5.0728 5.18685 4.31226 7.02297 4.31226 8.9375C4.31226 11.55 5.53257 14.3344 7.83569 16.9813C8.65822 17.9252 9.55795 18.7991 10.5255 19.5938H5.34351C5.25234 19.5938 5.1649 19.63 5.10044 19.6944C5.03597 19.7589 4.99976 19.8463 4.99976 19.9375C4.99976 20.0287 5.03597 20.1161 5.10044 20.1806C5.1649 20.245 5.25234 20.2812 5.34351 20.2812H17.7185C17.8097 20.2812 17.8971 20.245 17.9616 20.1806C18.026 20.1161 18.0623 20.0287 18.0623 19.9375C18.0623 19.8463 18.026 19.7589 17.9616 19.6944C17.8971 19.63 17.8097 19.5938 17.7185 19.5938ZM8.34272 16.5172C6.82163 14.7641 4.99976 12.0227 4.99976 8.9375C4.99976 7.2053 5.68787 5.54406 6.91271 4.31921C8.13756 3.09436 9.79881 2.40625 11.531 2.40625C13.2632 2.40625 14.9244 3.09436 16.1493 4.31921C17.3741 5.54406 18.0623 7.2053 18.0623 8.9375C18.0623 12.0227 16.249 14.7641 14.7193 16.5172C13.7643 17.623 12.6956 18.6254 11.531 19.5078C10.3684 18.6231 9.29995 17.6209 8.34272 16.5172ZM14.6248 8.9375C14.6248 8.32561 14.4433 7.72747 14.1034 7.2187C13.7634 6.70994 13.2802 6.31341 12.7149 6.07925C12.1496 5.84509 11.5276 5.78382 10.9274 5.9032C10.3273 6.02257 9.77606 6.31722 9.34339 6.74989C8.91073 7.18256 8.61607 7.73381 8.4967 8.33394C8.37733 8.93407 8.4386 9.55612 8.67275 10.1214C8.90691 10.6867 9.30345 11.1699 9.81221 11.5099C10.321 11.8498 10.9191 12.0312 11.531 12.0312C12.3515 12.0312 13.1384 11.7053 13.7186 11.1251C14.2988 10.5449 14.6248 9.75801 14.6248 8.9375ZM9.12476 8.9375C9.12476 8.46159 9.26588 7.99636 9.53028 7.60066C9.79468 7.20495 10.1705 6.89654 10.6102 6.71441C11.0499 6.53229 11.5337 6.48464 12.0004 6.57749C12.4672 6.67033 12.896 6.8995 13.2325 7.23602C13.569 7.57254 13.7982 8.0013 13.891 8.46806C13.9839 8.93483 13.9362 9.41865 13.7541 9.85833C13.572 10.298 13.2636 10.6738 12.8678 10.9382C12.4721 11.2026 12.0069 11.3438 11.531 11.3438C10.8935 11.3415 10.2828 11.0872 9.83203 10.6365C9.38126 10.1857 9.12702 9.57498 9.12476 8.9375Z" fill="#111111"/>
</svg>