<svg width="14" height="14" viewBox="0 0 14 14" fill="none" xmlns="http://www.w3.org/2000/svg">
<path d="M4.228 10.038C4.935 8.281 5.733 6.272 8.75 5.6C8.75 5.6 5.25 5.6 4.116 8.841C4.116 8.841 3.5 8.225 3.5 7.525C3.5 6.825 4.2 5.341 5.95 4.991C6.447 4.9 7 4.809 7.546 4.732C8.925 4.55 10.248 4.354 10.5 3.85C10.5 3.85 9.45 9.8 5.6 9.8C5.474 9.8 5.299 9.758 5.131 9.695L4.802 10.5L4.137 10.269L4.228 10.038ZM7 1.4C10.087 1.4 12.6 3.913 12.6 7C12.6 10.087 10.087 12.6 7 12.6C3.913 12.6 1.4 10.087 1.4 7C1.4 3.913 3.913 1.4 7 1.4ZM7 0C3.15 0 0 3.15 0 7C0 10.85 3.15 14 7 14C10.85 14 14 10.85 14 7C14 3.15 10.85 0 7 0Z" fill="#4ECB71"/>
</svg>