<svg width="26" height="26" viewBox="0 0 26 26" fill="none" xmlns="http://www.w3.org/2000/svg">
<path d="M6.50008 21.6667H19.5001C20.0959 21.6667 20.5834 22.1542 20.5834 22.75C20.5834 23.3458 20.0959 23.8333 19.5001 23.8333H6.50008C5.90425 23.8333 5.41675 23.3458 5.41675 22.75C5.41675 22.1542 5.90425 21.6667 6.50008 21.6667ZM13.0001 7.58332C11.8084 7.58332 10.8334 8.55832 10.8334 9.74999C10.8334 10.9417 11.8084 11.9167 13.0001 11.9167C14.1917 11.9167 15.1667 10.9417 15.1667 9.74999C15.1667 8.55832 14.1917 7.58332 13.0001 7.58332ZM13.0001 2.16666C16.5426 2.16666 20.5834 4.83166 20.5834 9.91249C20.5834 13.1408 18.2759 16.5425 13.6609 20.085C13.2709 20.3883 12.7292 20.3883 12.3392 20.085C7.72425 16.5317 5.41675 13.1408 5.41675 9.91249C5.41675 4.83166 9.45758 2.16666 13.0001 2.16666Z" fill="#F8F8F8"/>
</svg>