<svg width="26" height="26" viewBox="0 0 26 26" fill="none" xmlns="http://www.w3.org/2000/svg">
<g clip-path="url(#clip0_7_470)">
<path d="M9.37247 13.2995C9.53659 14.0103 8.75684 14.5505 8.15026 14.1714L6.08164 12.8787L3.49855 17.0124C2.82397 18.0918 3.60367 19.4998 4.87584 19.4998H7.51585C7.85238 19.4998 8.12523 19.7726 8.12523 20.1092V22.1404C8.12523 22.4769 7.85238 22.7498 7.51585 22.7498H4.88107C1.05551 22.7498 -1.2788 18.5325 0.747068 15.291L3.32787 11.158L1.25981 9.86577C0.646318 9.48252 0.804501 8.54743 1.50757 8.38509L7.10554 7.0927C7.54282 6.99175 7.97903 7.2644 8.07998 7.70157L9.37247 13.2995ZM14.3775 4.01089L16.4742 7.36631L14.4054 8.65905C13.7934 9.04133 13.9484 9.97698 14.6532 10.1397L20.2511 11.4321C20.6915 11.5336 21.1253 11.2575 21.2256 10.8232L22.518 5.22527C22.6803 4.52226 21.9091 3.97001 21.2957 4.35346L19.2296 5.64452L17.1342 2.2888C15.2289 -0.759753 10.776 -0.766761 8.86623 2.2888L7.95404 3.74957C7.7758 4.03496 7.86264 4.41079 8.14803 4.58914L9.87048 5.66545C10.1559 5.84379 10.5319 5.757 10.7102 5.47161L11.6223 4.01201C12.2678 2.97907 13.7537 3.01284 14.3775 4.01089ZM25.2531 15.291L23.8559 13.0534C23.6776 12.7678 23.3016 12.6809 23.0161 12.8593L21.2966 13.9338C21.0112 14.1121 20.9243 14.4881 21.1027 14.7735L22.5024 17.0136C23.1756 18.0907 22.398 19.4998 21.1244 19.4998H16.2502V17.0633C16.2502 16.3415 15.3747 15.9774 14.8632 16.4888L10.8007 20.5503C10.4834 20.8676 10.4834 21.3821 10.8007 21.6994L14.8632 25.7613C15.3712 26.2693 16.2502 25.9135 16.2502 25.1867V22.7498H21.1191C24.9416 22.7498 27.2807 18.5351 25.2531 15.291Z" fill="#F8F8F8"/>
</g>
<defs>
<clipPath id="clip0_7_470">
<rect width="26" height="26" fill="white"/>
</clipPath>
</defs>
</svg>